<?xml version="1.0"?>
<svg xmlns="http://www.w3.org/2000/svg" xmlns:xlink="http://www.w3.org/1999/xlink" xmlns:svgjs="http://svgjs.com/svgjs" version="1.1" width="512" height="512" x="0" y="0" viewBox="0 0 512 512" style="enable-background:new 0 0 512 512" xml:space="preserve" class=""><g><g xmlns="http://www.w3.org/2000/svg"><path d="M252.671,191.443l15.961,1.114L271.461,152H280a8,8,0,0,0,8-8V112a8,8,0,0,0-8-8H181.151L168.737,76.689l-14.565,6.622,9.4,20.689h-22.3L119.353,52.849A8,8,0,0,0,112,48H48V32h68.683A22.044,22.044,0,0,1,136.71,44.9L146.9,67.311l14.567-6.622L151.276,38.275A38.077,38.077,0,0,0,116.683,16H40a8,8,0,0,0-8,8V56a8,8,0,0,0,8,8h66.725l17.143,40H24a8,8,0,0,0-8,8v32a8,8,0,0,0,8,8H255.423ZM32,120H272v16H32Z" fill="#ffffff" data-original="#000000" style="" class=""/><rect x="256" y="240" width="16" height="16" fill="#ffffff" data-original="#000000" style="" class=""/><rect x="304" y="264" width="16" height="16" fill="#ffffff" data-original="#000000" style="" class=""/><rect x="352" y="240" width="16" height="16" fill="#ffffff" data-original="#000000" style="" class=""/><path d="M424.576,64.405h0A22.962,22.962,0,0,0,408,71.446l-7.956,8.181-7.955-8.181a22.96,22.96,0,0,0-16.577-7.041h0a22.962,22.962,0,0,0-16.578,7.041,24.159,24.159,0,0,0,0,33.453l35.375,36.377a8,8,0,0,0,11.471,0L441.153,104.9a24.159,24.159,0,0,0,0-33.453A22.96,22.96,0,0,0,424.576,64.405Zm5.106,29.34-29.64,30.48L370.4,93.745a8.048,8.048,0,0,1,0-11.144,7.035,7.035,0,0,1,10.213,0L394.307,96.68a8,8,0,0,0,11.471,0L419.469,82.6a7.035,7.035,0,0,1,10.213,0A8.048,8.048,0,0,1,429.682,93.745Z" fill="#ffffff" data-original="#000000" style="" class=""/><path d="M478,176a18.021,18.021,0,0,0,18-18V50a18.021,18.021,0,0,0-18-18H322a18.021,18.021,0,0,0-18,18V158a18.021,18.021,0,0,0,18,18h41.719l21.338,32.007Q384.529,208,384,208H240a88.1,88.1,0,0,0-88,88v.285A28.044,28.044,0,0,0,128,324v24a28.038,28.038,0,0,0,16.319,25.445,48.343,48.343,0,0,0,6.526,19.031A28.046,28.046,0,0,0,128,420v8a28.036,28.036,0,0,0,16,25.3V468a27.836,27.836,0,0,0,2.7,12H71.461L49.655,167.443l-15.961,1.114,22.326,320A8,8,0,0,0,64,496H376V480H172a12.013,12.013,0,0,1-12-12V456H464v12a12.013,12.013,0,0,1-12,12H392v16h60a28.032,28.032,0,0,0,28-28V453.3A28.036,28.036,0,0,0,496,428v-8a28.046,28.046,0,0,0-22.845-27.524,48.343,48.343,0,0,0,6.526-19.031A28.038,28.038,0,0,0,496,348V324a28.043,28.043,0,0,0-24-27.715V296a87.172,87.172,0,0,0-8.8-38.409L448.8,264.583A71.294,71.294,0,0,1,456,296H168a72.081,72.081,0,0,1,72-72H384a71.459,71.459,0,0,1,57.609,28.805L454.4,243.2a87.485,87.485,0,0,0-42.523-30.734L435.753,176ZM307.35,390.51a8,8,0,0,0,9.3,0L336.964,376H462.955c-4.831,18.236-25.843,32-50.955,32-16.821,0-32.707-6.364-42.495-17.023a8,8,0,0,0-11.608-.187C347.342,401.566,330.185,408,312,408s-35.342-6.434-45.9-17.21a8,8,0,0,0-11.608.187C244.707,401.636,228.821,408,212,408c-25.112,0-46.124-13.764-50.955-32H287.036ZM480,420v8a12.013,12.013,0,0,1-12,12H156a12.013,12.013,0,0,1-12-12v-8a12.013,12.013,0,0,1,12-12h8.456c12.269,9.893,29.057,16,47.544,16,18.574,0,35.841-6.016,48.551-16.72C274.005,417.981,292.314,424,312,424s38-6.019,51.449-16.72C376.159,417.984,393.426,424,412,424c18.487,0,35.275-6.107,47.544-16H468A12.013,12.013,0,0,1,480,420ZM468,312a12.013,12.013,0,0,1,12,12v24a12.013,12.013,0,0,1-12,12H359.364l67.2-48Zm-68.964,0L312,374.169,224.964,312Zm-201.6,0,67.2,48H156a12.013,12.013,0,0,1-12-12V324a12.013,12.013,0,0,1,12-12Zm227.3-148.382-24.8,37.869-25.284-37.925A8,8,0,0,0,368,160H322a2,2,0,0,1-2-2V50a2,2,0,0,1,2-2H478a2,2,0,0,1,2,2V158a2,2,0,0,1-2,2H431.429A8,8,0,0,0,424.736,163.618Z" fill="#ffffff" data-original="#000000" style="" class=""/></g></g></svg>
